<svg width="30" height="30" viewBox="0 0 30 30" fill="none" xmlns="http://www.w3.org/2000/svg">
<path d="M4.3934 25.6066C3.0659 24.2791 3.94638 21.4921 3.27069 19.859C2.57025 18.1661 0 16.8036 0 14.9999C0 13.1963 2.57026 11.8338 3.2707 10.141C3.94638 8.50792 3.0659 5.7209 4.3934 4.3934C5.7209 3.0659 8.50793 3.94638 10.141 3.27069C11.8339 2.57025 13.1964 0 15.0001 0C16.8037 0 18.1662 2.57026 19.859 3.2707C21.4921 3.94638 24.2791 3.0659 25.6066 4.3934C26.9341 5.7209 26.0536 8.50793 26.7293 10.141C27.4298 11.8339 30 13.1964 30 15.0001C30 16.8037 27.4297 18.1662 26.7293 19.859C26.0536 21.4921 26.9341 24.2791 25.6066 25.6066C24.2791 26.9341 21.4921 26.0536 19.859 26.7293C18.1661 27.4298 16.8036 30 14.9999 30C13.1963 30 11.8338 27.4297 10.141 26.7293C8.50792 26.0536 5.7209 26.9341 4.3934 25.6066Z" fill="url(#paint0_linear_163_397)"/>
<path d="M21.4904 8.50961L8.50961 21.4904" stroke="white" stroke-width="2" stroke-linecap="round" stroke-linejoin="round"/>
<path d="M10.3125 12.8365C11.7065 12.8365 12.8365 11.7065 12.8365 10.3125C12.8365 8.91852 11.7065 7.78847 10.3125 7.78847C8.9185 7.78847 7.78845 8.91852 7.78845 10.3125C7.78845 11.7065 8.9185 12.8365 10.3125 12.8365Z" stroke="white" stroke-width="2" stroke-miterlimit="10"/>
<path d="M19.6875 22.2115C21.0815 22.2115 22.2115 21.0815 22.2115 19.6875C22.2115 18.2935 21.0815 17.1635 19.6875 17.1635C18.2935 17.1635 17.1635 18.2935 17.1635 19.6875C17.1635 21.0815 18.2935 22.2115 19.6875 22.2115Z" stroke="white" stroke-width="2" stroke-miterlimit="10"/>
<defs>
<linearGradient id="paint0_linear_163_397" x1="15" y1="-1.73847e-06" x2="-10.835" y2="9.96491" gradientUnits="userSpaceOnUse">
<stop stop-color="#CC4018"/>
<stop offset="1" stop-color="#FFAE10"/>
</linearGradient>
</defs>
</svg>
