<svg width="30" height="30" viewBox="0 0 30 30" fill="none" xmlns="http://www.w3.org/2000/svg">
<path d="M23.7111 23.306L19.0273 18.6028C20.2316 17.2207 20.8914 15.4817 20.8914 13.6712C20.8914 9.44139 17.3269 6 12.9457 6C8.56452 6 5 9.44139 5 13.6712C5 17.9011 8.56452 21.3425 12.9457 21.3425C14.5905 21.3425 16.1579 20.8635 17.4979 19.9543L22.2173 24.6931C22.4146 24.8909 22.6799 25 22.9642 25C23.2333 25 23.4886 24.9009 23.6824 24.7208C24.0942 24.3383 24.1074 23.7039 23.7111 23.306ZM12.9457 8.00119C16.1841 8.00119 18.8186 10.5447 18.8186 13.6712C18.8186 16.7978 16.1841 19.3413 12.9457 19.3413C9.70732 19.3413 7.07279 16.7978 7.07279 13.6712C7.07279 10.5447 9.70732 8.00119 12.9457 8.00119Z" fill="#828282"/>
</svg>
