<svg width="30" height="30" viewBox="0 0 30 30" fill="none" xmlns="http://www.w3.org/2000/svg">
<path d="M15.4219 22.0625C15.4219 22.0625 8 17.9063 8 12.8594C8.00015 11.9674 8.30923 11.1029 8.8747 10.4131C9.44017 9.72319 10.2271 9.25045 11.1017 9.07522C11.9764 8.89999 12.8847 9.03308 13.6723 9.45187C14.4599 9.87067 15.0781 10.5493 15.4219 11.3724L15.4219 11.3724C15.7656 10.5493 16.3839 9.87067 17.1715 9.45188C17.9591 9.03308 18.8674 8.89999 19.742 9.07522C20.6166 9.25045 21.4036 9.72319 21.969 10.4131C22.5345 11.1029 22.8436 11.9674 22.8438 12.8594C22.8438 17.9063 15.4219 22.0625 15.4219 22.0625Z" stroke="#828282" stroke-width="2" stroke-linecap="round" stroke-linejoin="round"/>
</svg>
