<svg width="28" height="28" viewBox="0 0 28 28" fill="none" xmlns="http://www.w3.org/2000/svg">
<path d="M5.25 15.2675V22.75C5.25 22.9821 5.34219 23.2046 5.50628 23.3687C5.67038 23.5328 5.89294 23.625 6.125 23.625H21.875C22.1071 23.625 22.3296 23.5328 22.4937 23.3687C22.6578 23.2046 22.75 22.9821 22.75 22.75V15.2676" stroke="#BDBDBD" stroke-width="2" stroke-linecap="round" stroke-linejoin="round"/>
<path d="M5.91001 4.375H22.09C22.2801 4.375 22.4651 4.43694 22.6169 4.55145C22.7687 4.66595 22.8791 4.82679 22.9313 5.00962L24.5 10.5H3.5L5.06868 5.00962C5.12092 4.82679 5.23129 4.66595 5.38309 4.55145C5.5349 4.43694 5.71987 4.375 5.91001 4.375Z" stroke="#BDBDBD" stroke-width="2" stroke-linecap="round" stroke-linejoin="round"/>
<path d="M10.5 10.5V12.25C10.5 13.1783 10.1313 14.0685 9.47487 14.7249C8.8185 15.3813 7.92826 15.75 7 15.75C6.07174 15.75 5.1815 15.3813 4.52513 14.7249C3.86875 14.0685 3.5 13.1783 3.5 12.25V10.5" stroke="#BDBDBD" stroke-width="2" stroke-linecap="round" stroke-linejoin="round"/>
<path d="M17.5 10.5V12.25C17.5 13.1783 17.1313 14.0685 16.4749 14.7249C15.8185 15.3813 14.9283 15.75 14 15.75C13.0717 15.75 12.1815 15.3813 11.5251 14.7249C10.8687 14.0685 10.5 13.1783 10.5 12.25V10.5" stroke="#BDBDBD" stroke-width="2" stroke-linecap="round" stroke-linejoin="round"/>
<path d="M24.5 10.5V12.25C24.5 13.1783 24.1313 14.0685 23.4749 14.7249C22.8185 15.3813 21.9283 15.75 21 15.75C20.0717 15.75 19.1815 15.3813 18.5251 14.7249C17.8687 14.0685 17.5 13.1783 17.5 12.25V10.5" stroke="#BDBDBD" stroke-width="2" stroke-linecap="round" stroke-linejoin="round"/>
</svg>
