<svg width="30" height="30" viewBox="0 0 30 30" fill="none" xmlns="http://www.w3.org/2000/svg">
<path d="M16.5469 19.5469L6 19.5469" stroke="#828282" stroke-width="2" stroke-linecap="round" stroke-linejoin="round"/>
<path d="M23.1875 19.5469L20.4531 19.5469" stroke="#828282" stroke-width="2" stroke-linecap="round" stroke-linejoin="round"/>
<path d="M18.5 21.5C19.5787 21.5 20.4531 20.6256 20.4531 19.5469C20.4531 18.4682 19.5787 17.5938 18.5 17.5938C17.4213 17.5938 16.5469 18.4682 16.5469 19.5469C16.5469 20.6256 17.4213 21.5 18.5 21.5Z" stroke="#828282" stroke-width="2" stroke-linecap="round" stroke-linejoin="round"/>
<path d="M10.2969 10.9531L6 10.953" stroke="#828282" stroke-width="2" stroke-linecap="round" stroke-linejoin="round"/>
<path d="M23.1875 10.953L14.2031 10.9531" stroke="#828282" stroke-width="2" stroke-linecap="round" stroke-linejoin="round"/>
<path d="M12.25 12.9063C13.3287 12.9063 14.2031 12.0318 14.2031 10.9531C14.2031 9.87444 13.3287 9 12.25 9C11.1713 9 10.2969 9.87444 10.2969 10.9531C10.2969 12.0318 11.1713 12.9063 12.25 12.9063Z" stroke="#828282" stroke-width="2" stroke-linecap="round" stroke-linejoin="round"/>
</svg>
