<svg width="28" height="28" viewBox="0 0 28 28" fill="none" xmlns="http://www.w3.org/2000/svg">
<path d="M24.5006 5.54163V20.7083C24.5006 20.8441 24.469 20.9781 24.4082 21.0996C24.3475 21.2211 24.2593 21.3268 24.1506 21.4083C24.0419 21.4898 23.9158 21.5449 23.7821 21.5692C23.6485 21.5935 23.511 21.5863 23.3806 21.5483L4.13061 15.9337C3.94886 15.8807 3.78921 15.7702 3.67561 15.6187C3.56202 15.4672 3.50061 15.283 3.50061 15.0937V11.1562C3.50061 10.9669 3.56202 10.7827 3.67561 10.6312C3.78921 10.4797 3.94886 10.3692 4.13061 10.3162L23.3806 4.70163C23.511 4.66359 23.6485 4.65644 23.7821 4.68074C23.9158 4.70504 24.0419 4.76012 24.1506 4.84163C24.2593 4.92313 24.3475 5.02882 24.4082 5.15031C24.469 5.27181 24.5006 5.40579 24.5006 5.54163V5.54163Z" stroke="#BDBDBD" stroke-width="2" stroke-linecap="round" stroke-linejoin="round"/>
<path d="M7.875 17.0258V21C7.875 21.232 7.96719 21.4546 8.13128 21.6187C8.29538 21.7828 8.51794 21.875 8.75 21.875H12.25C12.4821 21.875 12.7046 21.7828 12.8687 21.6187C13.0328 21.4546 13.125 21.232 13.125 21V7.69287" stroke="#BDBDBD" stroke-width="2" stroke-linecap="round" stroke-linejoin="round"/>
</svg>
