<svg width="28" height="28" viewBox="0 0 28 28" fill="none" xmlns="http://www.w3.org/2000/svg">
<path d="M18.8333 17C18.4961 17 18.2167 16.7491 18.1727 16.4241L18.1667 16.3189V9.33333C18.1667 8.14402 18.5749 6.77105 19.1934 5.70025C19.5015 5.16681 19.8498 4.72955 20.2036 4.43142C20.56 4.13121 20.8872 4 21.1667 4C21.5039 4 21.7833 4.25086 21.8273 4.5759L21.8333 4.68108V23.3333C21.8333 23.7015 21.5349 24 21.1667 24C20.8294 24 20.55 23.7491 20.5061 23.4241L20.5 23.3189V17.5V17H20H18.8333ZM14.1667 4C14.5039 4 14.7833 4.25086 14.8273 4.5759L14.8333 4.68108V10.5C14.8333 12.4405 13.5063 14.0724 11.7095 14.5352L11.3343 14.6319L11.3342 15.0194L11.3333 23.3333V23.3333C11.3333 23.7015 11.0349 24 10.6667 24C10.3294 24 10.05 23.7491 10.0061 23.4241L10 23.3189L10.0003 15.0197L10.0003 14.6321L9.62488 14.5355C7.89617 14.0907 6.60185 12.5635 6.50575 10.721L6.5 10.4937V4.66667C6.5 4.29848 6.79848 4 7.16667 4C7.50393 4 7.78331 4.25087 7.82727 4.57591L7.83333 4.68108V10.5C7.83333 11.5493 8.40401 12.4648 9.24953 12.9539L9.99991 13.388L9.99992 12.5211L10 4.66667C10 4.29848 10.2985 4 10.6667 4C11.0039 4 11.2833 4.25087 11.3273 4.57591L11.3333 4.68112L11.3346 12.5205L11.3347 13.3879L12.0852 12.9531C12.865 12.5014 13.4107 11.6872 13.49 10.7388L13.4909 10.7284L13.4914 10.7179L13.4996 10.5208L13.5 10.5104V10.5V4.66667C13.5 4.29848 13.7985 4 14.1667 4Z" fill="#BDBDBD" stroke="#BDBDBD"/>
</svg>
